<svg version="1" xmlns="http://www.w3.org/2000/svg" width="682.667" height="682.667" viewBox="0 0 512.000000 512.000000"><path d="M38.3 1.5C20.1 6.4 6.3 20.4 1.5 38.7c-2.3 8.6-2.3 426 0 434.6 4.8 18.5 18.7 32.4 37.2 37.2 8.6 2.3 426 2.3 434.6 0 18.5-4.8 32.4-18.7 37.2-37.2 2.3-8.6 2.3-426 0-434.6-4.8-18.5-18.7-32.4-37.2-37.2-8.4-2.2-426.9-2.1-435 0zM355 205.4c0 58.7-.4 98.3-1.1 104.7-2.7 27.3-11.8 47.1-28.7 63.1-12.8 11.9-29.5 19.9-50.7 24.3-10.9 2.3-36.7 3.1-49.1 1.5-28-3.5-50.2-13.6-66-30.2-15.9-16.5-24.6-37.9-26.9-65.6l-.7-8.2h80.1l.6 4.7c1.8 13.5 6.7 21.9 15.6 26.8 4.9 2.7 6.2 3 14.9 3 11 0 15.7-1.8 20.9-8.2 7-8.5 6.6-2 6.9-111.6l.2-98.7h84v94.4z"/></svg>